<?xml version="1.0" encoding="utf-8"?>
<!-- Generator: Adobe Illustrator 23.0.3, SVG Export Plug-In . SVG Version: 6.00 Build 0)  -->
<svg version="1.1" id="Layer_1" xmlns="http://www.w3.org/2000/svg" xmlns:xlink="http://www.w3.org/1999/xlink" x="0px" y="0px"
	 viewBox="0 0 100 100" style="enable-background:new 0 0 100 100;" xml:space="preserve">
<path d="M62.7,29.9l-4.5,3.4l5.1,6.8l4.5-3.4l6.7,2.9l0.7,5.6l8.4-1L83,38.6l5.9-4.4l5.2,2.2l3.4-7.8l-5.2-2.2l-0.9-7.3l4.5-3.4
	l-5.1-6.8l-4.5,3.4l-6.7-2.9l-0.7-5.6l-8.4,1l0.7,5.6l-5.9,4.4L60,12.5l-3.4,7.8l5.2,2.2L62.7,29.9z M76.1,16.4
	c4.5-0.5,8.5,2.7,9,7.1c0.5,4.5-2.7,8.5-7.1,9c-4.5,0.5-8.5-2.7-9-7.1C68.5,21,71.6,16.9,76.1,16.4z"/>
<path d="M95.1,77.6l-1-8.4l-5.6,0.7L84.1,64l2.2-5.2l-7.8-3.3l-2.2,5.2L69,61.5L65.6,57l-6.8,5.1l3.4,4.5l-2.9,6.8l-5.6,0.7l1,8.4
	l5.6-0.7l4.4,5.9l-2.2,5.2l7.8,3.3l2.2-5.2l7.3-0.9l3.4,4.5l6.8-5.1L86.7,85l2.9-6.8L95.1,77.6z M81.9,79c-1.8,4.1-6.5,6-10.6,4.3
	c-4.1-1.8-6-6.5-4.3-10.7c1.8-4.1,6.5-6,10.7-4.3C81.8,70.1,83.7,74.9,81.9,79z"/>
<path d="M55.2,61.2l2.9-7.1l6.6-0.6V42.8l-6.6-0.6l-2.9-7.1l4.2-5.1l-7.5-7.5l-5.1,4.3l-7.1-2.9L39,17.1H28.3l-0.6,6.6l-7.1,2.9
	l-5.1-4.2L7.9,30l4.3,5.1l-2.9,7.1l-6.6,0.6v10.7l6.6,0.6l2.9,7.1l-4.3,5.1l7.5,7.5l5.1-4.2l7.1,2.9l0.6,6.6H39l0.6-6.6l7.1-2.9
	l5.1,4.2l7.5-7.5L55.2,61.2z M33.7,61.8c-7.5,0-13.7-6.1-13.7-13.7c0-7.5,6.1-13.7,13.7-13.7c7.5,0,13.7,6.1,13.7,13.7
	C47.4,55.7,41.2,61.8,33.7,61.8z"/>
</svg>
