<svg version="1.1" id="Layer_1" xmlns="http://www.w3.org/2000/svg" xmlns:xlink="http://www.w3.org/1999/xlink" x="0px" y="0px"
	 viewBox="0 0 100 100" style="enable-background:new 0 0 100 100;" xml:space="preserve">
<title>Artboard 1 copy 3</title>
<path d="M94.6,39.8c-0.3-0.9-1.1-1.6-2-1.7L64.7,34L52.3,8.8c-0.6-1.2-2.1-1.7-3.4-1.1c-0.5,0.2-0.9,0.6-1.1,1.1L35.3,34L7.5,38
	c-1.4,0.2-2.3,1.4-2.2,2.8c0.1,0.6,0.4,1.1,0.8,1.5L26.3,62l-4.8,27.7c-0.2,1.4,0.7,2.7,2,2.9c0.5,0.1,1.1,0,1.6-0.3L50,79.2
	l24.9,13.1c1.2,0.6,2.7,0.2,3.4-1c0.3-0.5,0.3-1.1,0.3-1.6L73.8,62l20.1-19.7C94.6,41.7,94.9,40.7,94.6,39.8z"/>
</svg>
