<svg version="1.1" id="Layer_1" xmlns="http://www.w3.org/2000/svg" xmlns:xlink="http://www.w3.org/1999/xlink" x="0px" y="0px"
	 viewBox="0 0 100 100" style="enable-background:new 0 0 100 100;" xml:space="preserve">
<circle cx="19.9" cy="30" r="9.7"/>
<circle cx="50" cy="37.1" r="14.2"/>
<path d="M63.2,48.8c-3.2,3.6-8,5.9-13.2,5.9c-5.3,0-10-2.3-13.2-6C29.1,53.9,24,62.6,24,72.5c0,3.9,3.2,7.1,7.1,7.1h37.8
	c3.9,0,7.1-3.2,7.1-7.1C76,62.6,70.9,53.9,63.2,48.8z"/>
<path d="M34.8,45.9l0.6-0.4c-1.4-2.7-3.3-5-5.7-6.7c-2.4,2.7-5.9,4.5-9.9,4.5s-7.5-1.8-9.9-4.5c-4.7,3.5-7.8,9.1-7.8,15.5v1.3
	c0,2,1.6,3.5,3.5,3.5h17.8C25.9,53.8,29.8,49.2,34.8,45.9z"/>
<circle cx="80.1" cy="30" r="9.7"/>
<path d="M90,38.7c-2.4,2.7-5.9,4.5-9.9,4.5s-7.5-1.8-9.9-4.5c-2.4,1.8-4.3,4.1-5.7,6.7l0.6,0.4c5,3.3,8.9,7.9,11.3,13.2h17.8
	c2,0,3.5-1.6,3.5-3.5v-1.3C97.9,47.9,94.8,42.3,90,38.7z"/>
</svg>
